<svg width="25" height="24" viewBox="0 0 25 24" fill="none" xmlns="http://www.w3.org/2000/svg">
<path d="M23.7404 3.95021C23.7406 3.77357 23.6939 3.60007 23.6051 3.44735C23.5163 3.29464 23.3887 3.16817 23.2352 3.08084C23.0816 2.9935 22.9077 2.94842 22.7311 2.95017C22.5545 2.95193 22.3815 3.00046 22.2297 3.09083C21.6444 3.43921 21.0142 3.70601 20.3567 3.88383C19.4177 3.07806 18.22 2.63713 16.9827 2.64164C15.6253 2.6432 14.3216 3.17223 13.3469 4.11702C12.3722 5.06181 11.8029 6.3484 11.7591 7.70512C9.08305 7.27838 6.6577 5.88164 4.94552 3.78126C4.84235 3.65609 4.7106 3.55757 4.56138 3.494C4.41215 3.43043 4.24983 3.40368 4.0881 3.41601C3.92646 3.42932 3.77049 3.4818 3.63369 3.56892C3.49689 3.65603 3.38336 3.77516 3.30294 3.91601C2.89046 4.63582 2.65357 5.44276 2.61149 6.27131C2.5694 7.09986 2.72332 7.92666 3.06075 8.68456L3.0588 8.68651C2.90714 8.77991 2.78199 8.91066 2.6953 9.06625C2.60861 9.22185 2.5633 9.39708 2.56368 9.57519C2.56184 9.72211 2.57065 9.86898 2.59005 10.0146C2.69218 11.2729 3.24983 12.4507 4.15841 13.3271C4.09677 13.4446 4.05915 13.5731 4.04775 13.7052C4.03635 13.8373 4.05139 13.9704 4.092 14.0967C4.48811 15.3308 5.3305 16.3727 6.45431 17.0185C5.31255 17.46 4.07973 17.614 2.86446 17.4668C2.63953 17.4386 2.41169 17.4876 2.2183 17.6059C2.02492 17.7242 1.87748 17.9047 1.80017 18.1178C1.72286 18.3309 1.72027 18.5639 1.79282 18.7787C1.86537 18.9935 2.00875 19.1772 2.19946 19.2998C4.28955 20.646 6.72313 21.3617 9.20923 21.3613C12.0285 21.393 14.7792 20.4921 17.0335 18.7988C19.2877 17.1054 20.9192 14.7145 21.674 11.998C22.0271 10.8146 22.2074 9.58648 22.2092 8.35157C22.2092 8.28614 22.2092 8.21876 22.2082 8.15138C22.7303 7.58831 23.1348 6.92668 23.3979 6.20527C23.661 5.48387 23.7775 4.7172 23.7404 3.95021ZM20.4338 7.16212C20.2686 7.35746 20.185 7.60891 20.2004 7.86427C20.2102 8.02927 20.2092 8.19527 20.2092 8.35157C20.2071 9.39511 20.0542 10.4329 19.7551 11.4326C19.1386 13.744 17.7642 15.7817 15.8522 17.2192C13.9401 18.6568 11.6009 19.4111 9.20923 19.3613C8.3501 19.3616 7.49394 19.2606 6.65845 19.0606C7.72386 18.7172 8.72004 18.1879 9.60083 17.4971C9.76305 17.3693 9.88178 17.1945 9.94071 16.9967C9.99965 16.7988 9.99591 16.5875 9.93 16.3918C9.86409 16.1961 9.73925 16.0257 9.57261 15.9038C9.40596 15.7819 9.20567 15.7145 8.99923 15.7109C8.16806 15.698 7.37436 15.363 6.78536 14.7764C6.93478 14.7481 7.08322 14.7129 7.23068 14.6709C7.44669 14.6094 7.63572 14.477 7.76734 14.295C7.89895 14.1131 7.9655 13.8921 7.95625 13.6677C7.947 13.4433 7.8625 13.2285 7.71636 13.058C7.57022 12.8874 7.37093 12.7711 7.1506 12.7275C6.66813 12.6323 6.21414 12.427 5.82391 12.1277C5.43368 11.8284 5.11772 11.4432 4.9006 11.002C5.08133 11.0266 5.26321 11.0419 5.44552 11.0479C5.6621 11.0511 5.87411 10.9854 6.05089 10.8603C6.22767 10.7351 6.36006 10.5569 6.42892 10.3516C6.4949 10.1443 6.4915 9.92123 6.41925 9.7161C6.34699 9.51096 6.20982 9.33499 6.02853 9.21485C5.58867 8.92182 5.22837 8.52427 4.97988 8.0578C4.7314 7.59134 4.60248 7.07052 4.6047 6.54201C4.6047 6.47561 4.60665 6.4092 4.61056 6.34377C6.85182 8.43402 9.75888 9.66621 12.8196 9.82326C12.9741 9.82934 13.1279 9.80024 13.2695 9.73816C13.4111 9.67607 13.5368 9.58262 13.6369 9.46486C13.7361 9.34596 13.8064 9.20566 13.8421 9.05501C13.8778 8.90437 13.8781 8.74748 13.8429 8.5967C13.7858 8.35806 13.7566 8.11357 13.756 7.86818C13.7569 7.01271 14.0972 6.19254 14.7021 5.58764C15.307 4.98274 16.1272 4.64251 16.9826 4.64161C17.4228 4.64043 17.8584 4.7305 18.2619 4.90615C18.6655 5.0818 19.0283 5.3392 19.3273 5.66212C19.4427 5.7862 19.5878 5.87871 19.749 5.93085C19.9102 5.98299 20.0821 5.99303 20.2482 5.96001C20.659 5.88006 21.0639 5.7724 21.4601 5.63775C21.1899 6.19072 20.8445 6.70369 20.4338 7.16212Z" fill="#272321"/>
</svg>
