<svg width="22" height="21" viewBox="0 0 22 21" fill="none" xmlns="http://www.w3.org/2000/svg">
<path d="M21.0938 10.625C21.0938 11.0645 20.7031 11.4062 20.3125 11.4062H11.7188V20C11.7188 20.4395 11.3281 20.8301 10.9375 20.8301C10.498 20.8301 10.1562 20.4395 10.1562 20V11.4062H1.5625C1.12305 11.4062 0.78125 11.0645 0.78125 10.6738C0.78125 10.2344 1.12305 9.84375 1.5625 9.84375H10.1562V1.25C10.1562 0.859375 10.498 0.517578 10.9375 0.517578C11.3281 0.517578 11.7188 0.859375 11.7188 1.25V9.84375H20.3125C20.7031 9.84375 21.0938 10.2344 21.0938 10.625Z" fill="black"/>
</svg>
