<svg width="21" height="21" viewBox="0 0 21 21" fill="none" xmlns="http://www.w3.org/2000/svg">
<path d="M11.25 0C12.4688 0 13.5 1.03125 13.5 2.25V18.75C13.5 20.0156 12.4688 21 11.25 21H9.75C8.48438 21 7.5 20.0156 7.5 18.75V2.25C7.5 1.03125 8.48438 0 9.75 0H11.25ZM11.25 1.5H9.75C9.32812 1.5 9 1.875 9 2.25V18.75C9 19.1719 9.32812 19.5 9.75 19.5H11.25C11.625 19.5 12 19.1719 12 18.75V2.25C12 1.875 11.625 1.5 11.25 1.5ZM3.75 9C4.96875 9 6 10.0312 6 11.25V18.75C6 20.0156 4.96875 21 3.75 21H2.25C0.984375 21 0 20.0156 0 18.75V11.25C0 10.0312 0.984375 9 2.25 9H3.75ZM3.75 10.5H2.25C1.82812 10.5 1.5 10.875 1.5 11.25V18.75C1.5 19.1719 1.82812 19.5 2.25 19.5H3.75C4.125 19.5 4.5 19.1719 4.5 18.75V11.25C4.5 10.875 4.125 10.5 3.75 10.5ZM15 5.25C15 4.03125 15.9844 3 17.25 3H18.75C19.9688 3 21 4.03125 21 5.25V18.75C21 20.0156 19.9688 21 18.75 21H17.25C15.9844 21 15 20.0156 15 18.75V5.25ZM16.5 5.25V18.75C16.5 19.1719 16.8281 19.5 17.25 19.5H18.75C19.125 19.5 19.5 19.1719 19.5 18.75V5.25C19.5 4.875 19.125 4.5 18.75 4.5H17.25C16.8281 4.5 16.5 4.875 16.5 5.25Z" fill="white"/>
</svg>
