<svg width="185" height="40" viewBox="0 0 185 40" fill="none" xmlns="http://www.w3.org/2000/svg">
<path fill-rule="evenodd" clip-rule="evenodd" d="M184.615 40H0V0H184.615V40Z" fill="black"/>
<path fill-rule="evenodd" clip-rule="evenodd" d="M34.4194 14.1732C33.8925 15.3415 32.4666 15.5569 31.538 16.3874C31.1975 16.6028 30.7949 16.7869 30.4229 16.6028C30.1446 16.4187 30.3617 16.1416 30.4229 15.9261C30.7022 15.4649 31.3525 15.4032 31.4452 14.9116C31.167 14.6658 30.6706 14.7569 30.3302 14.8185C29.5555 15.3101 29.6799 16.3257 29.6799 17.1855C29.9887 19.5524 29.6483 21.9203 29.9581 24.2579C30.1131 24.5634 30.2364 25.0266 30.639 25.0883C32.064 25.1187 33.0251 24.1032 34.2023 23.5195C37.517 21.0909 41.4829 18.2314 42.0089 14.0185C42.2881 13.3731 43.0934 13.4652 43.6509 13.5572C44.1778 13.9871 45.1074 13.9871 45.2929 14.8176C45.2929 15.648 45.0758 16.3864 44.4561 16.97C39.9948 21.7362 34.3257 24.9023 28.625 27.3613C28.098 27.6384 27.355 27.7912 26.7659 27.516C25.8985 25.67 26.2705 23.4265 26.085 21.3974L26.0228 15.4012C26.8596 13.5562 29.369 13.6845 31.011 13.4946C32.2505 13.4965 33.5826 13.3741 34.4194 14.1732ZM163.951 14.6041C163.733 15.7714 162.681 16.6028 162.247 17.7094C160.387 20.7834 158.467 23.8593 156.795 26.994C156.362 27.4553 155.553 27.4553 155.027 27.2105C154.739 27.1161 154.482 26.9463 154.283 26.7189C154.253 25.7033 154.84 25.0893 155.399 24.1982C157.041 21.5835 158.404 18.8787 159.923 16.2346C160.418 15.3434 160.667 14.2055 161.504 13.5602C162.432 13.6199 163.425 13.8657 163.951 14.6041ZM16.667 15.8644C16.8219 18.6006 16.8841 21.3054 17.1624 23.828C17.1792 24.0689 17.194 24.442 17.5344 24.5027C18.7827 24.2315 23.914 20.9322 24.5989 21.3984C24.2574 22.2592 23.2351 22.7204 22.5226 23.3952C20.8184 24.964 18.6811 26.0363 16.7913 27.0871C15.993 27.5973 14.9638 27.6707 14.0648 27.6707C13.9852 27.674 13.9057 27.6614 13.8311 27.6336C13.7565 27.6058 13.6883 27.5635 13.6305 27.5091C13.5727 27.4546 13.5265 27.3892 13.4947 27.3167C13.4628 27.2442 13.446 27.1661 13.4451 27.0871C13.2902 23.7663 12.9685 20.5376 13.0307 17.1248C13.0622 16.168 12.1751 15.7107 12.0508 14.9116C13.1659 14.1428 14.6105 13.8246 15.8302 13.6503C16.9769 13.8353 16.6048 15.034 16.667 15.8644ZM51.8304 15.4952C50.5594 17.7398 49.0417 19.7081 47.6474 21.9213C47.3385 22.5677 46.6873 23.0593 46.6251 23.828H47.2142C49.5381 22.7204 51.7377 20.7521 54.5875 21.5521C55.0217 22.9045 54.6803 24.1972 54.3398 25.5192C54.2165 26.194 55.2072 26.6248 54.6497 27.3015C53.8751 27.8852 52.8527 27.9479 51.8926 28.1006C50.7035 27.2594 52.7403 23.357 51.2423 23.0279C48.7329 24.0718 46.4711 25.671 44.24 27.3623C43.5887 27.5787 42.8457 27.9479 42.1638 27.5787C41.8855 27.3319 41.8539 26.7796 42.071 26.4711C44.2706 22.6587 46.8412 18.9688 48.6391 14.9723C48.8868 14.5424 49.321 14.2966 49.7542 14.0811C50.6354 14.042 52.2952 14.1428 51.8304 15.4952ZM105.8 15.127C105.861 15.5883 105.459 15.9878 105.056 16.1416C103.384 15.9261 101.307 15.4649 100.161 17.1248C98.9391 18.6372 97.7918 20.2072 96.7227 21.8293C96.6299 22.0741 96.8766 22.2288 97.0325 22.2905C98.7051 22.3512 100.161 21.8606 101.772 21.8293C101.959 21.9213 101.926 22.1064 101.926 22.2905C100.222 23.7976 97.6818 23.3041 95.5444 23.828C94.677 24.5967 94.2123 25.6416 93.5916 26.5632C91.764 28.839 90.5562 31.5438 87.954 33.1126C86.9011 33.4515 85.786 33.8207 84.6078 33.5739L84.4529 33.3594C84.8871 32.8982 85.5995 32.8355 86.0949 32.4683C89.1618 30.5616 90.1852 27.1801 91.9821 24.4117C92.0127 24.1972 91.9199 24.0425 91.7334 23.8897C87.4271 23.9201 83.0901 24.3509 79.7123 26.8413C79.0926 27.5797 78.1019 27.9488 77.1101 27.6717C76.7075 27.6413 76.522 27.1801 76.7391 26.8413C77.5443 25.7033 78.3663 24.535 79.0936 23.1513C79.513 22.7518 79.5594 21.7686 80.4573 21.6138C81.2004 21.369 81.9138 21.7059 82.5335 21.983C83.1533 22.7821 82.0688 23.2737 81.9444 23.9817C82.8118 24.3206 83.5865 23.5518 84.4538 23.4598C86.8705 22.6607 89.5349 22.2602 92.2002 22.2915C94.4294 22.1368 94.5626 19.9579 95.9174 18.4478C97.7815 15.6412 100.813 14.9733 103.787 14.5434C104.561 14.512 105.398 14.4807 105.8 15.127ZM139.322 15.3425L139.196 16.0182C136.81 19.9226 134.333 23.828 132.256 27.8852C131.607 28.6843 130.46 28.1878 129.903 27.9479C128.663 27.1488 130.677 26.5935 130.026 25.7327C126.308 26.6875 120.809 28.412 118.223 27.1478C117.882 26.8706 117.633 26.4711 117.851 26.0402C119.244 23.8574 121.792 23.12 123.953 22.2895C126.509 21.5551 129.439 20.5983 132.04 21.7676C134.062 20.4005 134.939 17.5439 136.81 14.5414C137.742 14.5727 138.67 14.6344 139.322 15.3425Z" fill="white"/>
<path fill-rule="evenodd" clip-rule="evenodd" d="M131.083 22.7822C131.051 23.5205 130.918 24.5625 130.05 24.7466C127.787 25.3322 125.785 26.2253 123.214 26.0412C122.78 25.9188 121.818 25.7641 122.16 25.0884C123.925 23.028 126.529 22.7205 129.007 22.1985C129.688 22.1965 130.681 22.0438 131.083 22.7822Z" fill="black"/>
<path fill-rule="evenodd" clip-rule="evenodd" d="M151.218 21.7686C151.839 22.2906 151.372 23.2131 151.157 23.829C151.003 24.7505 150.475 25.5506 151.003 26.4721C151.189 26.8717 150.754 27.1488 150.475 27.2105C149.919 27.3026 149.174 27.518 148.617 27.2105C148.152 26.7189 148.678 26.0422 148.184 25.5193C145.364 26.5025 142.39 27.093 139.26 27.3398C138.148 27.4622 136.207 26.9843 135.914 26.4104C135.36 24.8191 138.163 23.6214 139.323 23.029C140.37 22.6353 142.43 21.8244 144.093 21.4601C145.784 21.0185 148.275 20.5073 149.98 21.6766L151.218 21.7686ZM148.988 22.7822C148.957 24.634 146.571 24.775 145.27 25.2422C143.658 25.5193 141.191 26.2812 140.156 25.4586C139.638 24.7065 140.636 23.7644 141.705 23.3051C143.286 22.6304 144.989 22.2612 146.694 21.9224C147.412 21.8528 148.648 21.799 148.988 22.7822ZM73.9363 21.7686C74.5561 22.2906 74.0913 23.2131 73.8742 23.829C73.7192 24.7505 73.1923 25.5506 73.7193 26.4721C73.9048 26.8717 73.4716 27.1488 73.1923 27.2105C72.6357 27.3026 71.8917 27.518 71.3342 27.2105C70.8694 26.7189 71.3963 26.0422 70.901 25.5193C68.0817 26.5025 65.1075 27.093 61.9784 27.3398C60.8663 27.4622 58.9252 26.9843 58.6322 26.4104C58.0786 24.8191 60.8801 23.6214 62.0405 23.029C63.0885 22.6353 65.1489 21.8244 66.8117 21.4601C68.5021 21.0185 70.9937 20.5073 72.6979 21.6766L73.9363 21.7686ZM71.7062 22.7822C71.6756 24.634 69.2895 24.775 67.988 25.2422C66.3775 25.5193 63.9095 26.2812 62.8764 25.4586C62.3573 24.7065 63.355 23.7644 64.4256 23.3051C66.0065 22.6304 67.7097 22.2612 69.4139 21.9224C70.1293 21.8528 71.3648 21.799 71.7062 22.7822ZM115.312 22.0438C115.404 22.7518 115.036 23.5548 114.568 23.7673C113.142 24.3588 104.459 24.9719 104.251 25.4586C104.033 25.9502 104.623 26.1029 104.902 26.195C108.186 26.903 111.563 26.195 114.784 25.673C115.042 25.6828 115.248 25.8581 115.312 26.1029C115.019 26.8717 113.67 26.8149 112.864 26.9941C109.55 27.5484 106.265 27.7628 102.764 27.6708C101.948 27.6992 100.968 27.4857 100.596 26.5632C100.458 25.5634 102.163 24.115 102.982 23.7673C106.407 21.6104 110.48 20.6972 114.507 21.183C114.878 21.3681 115.248 21.6129 115.312 22.0438ZM112.274 22.5677C112.274 23.0593 111.718 23.1514 111.376 23.3041C109.549 23.6116 107.627 23.9201 105.739 23.8898V23.6126C106.997 23.1073 107.965 22.6412 109.672 22.2945C110.434 22.1202 112.055 21.5444 112.274 22.5677ZM175.293 22.0438C175.386 22.7518 175.018 23.5548 174.549 23.7673C173.125 24.3588 164.44 24.9719 164.232 25.4586C164.016 25.9502 164.604 26.1029 164.883 26.195C168.167 26.903 171.544 26.195 174.767 25.673C175.026 25.6828 175.232 25.8581 175.293 26.1029C175 26.8717 173.651 26.8149 172.846 26.9941C169.531 27.5484 166.246 27.7628 162.747 27.6708C161.932 27.6992 160.949 27.4857 160.579 26.5632C160.44 25.5634 162.146 24.115 162.963 23.7673C166.389 21.6104 170.461 20.6972 174.489 21.183C174.859 21.3681 175.231 21.6129 175.293 22.0438ZM172.257 22.5677C172.257 23.0593 171.698 23.1514 171.359 23.3041C169.529 23.6116 167.608 23.9201 165.719 23.8898V23.6126C166.979 23.1073 167.947 22.6412 169.654 22.2945C170.414 22.1202 172.036 21.5444 172.257 22.5677Z" fill="white"/>
</svg>
