<svg width="35" height="41" viewBox="0 0 35 41" fill="none" xmlns="http://www.w3.org/2000/svg">
<path d="M24.5312 28.5C30.3125 28.5 35 33.1875 35 38.9688C35 40.1406 34.0625 41 32.8906 41H2.03125C0.859375 41 0 40.1406 0 38.9688C0 33.1875 4.60938 28.5 10.3906 28.5H24.5312ZM32.8906 39.75C33.3594 39.75 33.75 39.4375 33.75 38.9688C33.75 33.8906 29.6094 29.75 24.5312 29.75H10.3906C5.3125 29.75 1.25 33.8906 1.25 38.9688C1.25 39.4375 1.5625 39.75 2.03125 39.75H32.8906ZM5 14.75V17.875C5 18.2656 4.53125 18.5 4.29688 18.5C3.98438 18.5 3.75 18.2656 3.75 17.875V14.75C3.75 7.01562 10.1562 0.765625 17.9688 1.07812C25.4688 1.3125 31.25 7.64062 31.25 15.1406V17.875C31.25 22.4062 27.5781 26 23.125 26H16.25C14.7656 26 13.5938 24.75 13.75 23.2656C13.8281 22.0156 15 21 16.3281 21H18.5156C19.6094 21 20.625 21.625 21.0156 22.6406C21.4062 23.5 21.1719 24.2031 20.8594 24.75H23.125C26.875 24.75 30 21.7031 30 17.875V15.0625C30 8.34375 24.6875 2.5625 17.9688 2.32812C10.8594 2.01562 5 7.71875 5 14.75ZM18.75 24.75C19.375 24.75 20 24.2031 20 23.5C20 22.875 19.375 22.25 18.75 22.25H16.25C15.5469 22.25 15 22.875 15 23.5C15 24.2031 15.5469 24.75 16.25 24.75H18.75ZM17.5 7.25C12.6562 7.25 8.75 11.2344 8.75 16C8.75 17.9531 9.29688 19.75 10.4688 21.3125C10.7031 21.5469 10.625 21.9375 10.3125 22.1719C10.0781 22.3281 9.6875 22.3281 9.45312 22.0156C8.125 20.2969 7.5 18.1875 7.5 16C7.5 10.5312 11.9531 6 17.5 6C22.9688 6 27.5 10.5312 27.5 16C27.5 18.1875 26.7969 20.2969 25.4688 22.0156C25.3125 22.1719 25.1562 22.25 25 22.25C24.8438 22.25 24.6875 22.25 24.6094 22.1719C24.2969 21.9375 24.2188 21.5469 24.4531 21.3125C25.625 19.75 26.25 17.9531 26.25 16C26.25 11.2344 22.2656 7.25 17.5 7.25Z" fill="#272321"/>
</svg>
