<svg width="25" height="21" viewBox="0 0 25 21" fill="none" xmlns="http://www.w3.org/2000/svg">
<path d="M12.4531 3L13.0156 2.48438C14.5625 0.9375 16.7656 0.234375 18.875 0.609375C22.1094 1.125 24.5 3.9375 24.5 7.21875V7.45312C24.5 9.42188 23.6562 11.2969 22.25 12.6094L13.7656 20.5312C13.4375 20.8594 12.9688 21 12.5 21C11.9844 21 11.5156 20.8594 11.1875 20.5312L2.70312 12.6094C1.29688 11.2969 0.5 9.42188 0.5 7.45312V7.21875C0.5 3.9375 2.84375 1.125 6.07812 0.609375C8.1875 0.234375 10.3906 0.9375 11.9375 2.48438L12.4531 3ZM12.4531 5.15625L10.8594 3.51562C9.6875 2.34375 8 1.78125 6.3125 2.0625C3.82812 2.48438 1.95312 4.64062 1.95312 7.21875V7.45312C1.95312 9 2.60938 10.4531 3.73438 11.4844L12.2188 19.4062C12.2656 19.5 12.3594 19.5 12.4531 19.5C12.5938 19.5 12.6875 19.5 12.7344 19.4062L21.2188 11.4844C22.3438 10.4531 23 9 23 7.45312V7.21875C23 4.64062 21.125 2.48438 18.6406 2.0625C16.9531 1.78125 15.2656 2.34375 14.0938 3.51562L12.4531 5.15625Z" fill="white"/>
</svg>
