<svg width="21" height="21" viewBox="0 0 21 21" fill="none" xmlns="http://www.w3.org/2000/svg">
<path d="M21 3.75C21 5.85938 19.3125 7.5 17.25 7.5C16.1719 7.5 15.1875 7.07812 14.4844 6.32812L7.40625 9.89062C7.45312 10.0781 7.5 10.3125 7.5 10.5C7.5 10.7344 7.45312 10.9688 7.40625 11.1562L14.4844 14.6719C15.1875 13.9688 16.1719 13.5 17.25 13.5C19.3125 13.5 21 15.1875 21 17.25C21 19.3594 19.3125 21 17.25 21C15.1406 21 13.5 19.3594 13.5 17.25C13.5 16.8281 13.5469 16.3594 13.6875 15.9844L6.89062 12.5625C6.1875 13.5938 5.0625 14.25 3.75 14.25C1.64062 14.25 0 12.6094 0 10.5C0 8.4375 1.64062 6.75 3.75 6.75C5.0625 6.75 6.1875 7.45312 6.89062 8.48438L13.6875 5.0625C13.5469 4.64062 13.5 4.21875 13.5 3.75C13.5 1.6875 15.1406 0 17.25 0C19.3125 0 21 1.6875 21 3.75ZM3.70312 12.75C4.96875 12.75 5.95312 11.7656 5.95312 10.5C5.95312 9.28125 4.96875 8.25 3.70312 8.25C2.48438 8.25 1.45312 9.28125 1.45312 10.5C1.45312 11.7656 2.48438 12.75 3.70312 12.75ZM17.25 1.5C15.9844 1.5 15 2.53125 15 3.75C15 5.01562 15.9844 6 17.25 6C18.4688 6 19.5 5.01562 19.5 3.75C19.5 2.53125 18.4688 1.5 17.25 1.5ZM17.25 19.5C18.4688 19.5 19.5 18.5156 19.5 17.25C19.5 16.0312 18.4688 15 17.25 15C15.9844 15 15 16.0312 15 17.25C15 18.5156 15.9844 19.5 17.25 19.5Z" fill="white"/>
</svg>
