<svg width="61" height="61" viewBox="0 0 61 61" fill="none" xmlns="http://www.w3.org/2000/svg">
<path d="M2.26562 32.3438C0.3125 30.3906 0.3125 27.1875 2.26562 25.2344L25.1562 2.34375C27.1094 0.390625 30.3125 0.390625 32.2656 2.34375L37.6562 7.73438C39.6094 9.6875 39.6094 12.8906 37.6562 14.8438L14.7656 37.7344C12.8125 39.6875 9.60938 39.6875 7.65625 37.7344L2.26562 32.3438ZM3.125 31.4062L8.59375 36.875C10 38.3594 12.4219 38.3594 13.8281 36.875L36.7969 13.9062C38.2812 12.5 38.2812 10.0781 36.7969 8.67188L31.3281 3.20312C29.9219 1.71875 27.5 1.71875 26.0938 3.20312L22.5 6.71875L26.6406 10.8594C26.875 11.0938 26.875 11.4844 26.6406 11.7188C26.4062 11.9531 26.0156 11.9531 25.7812 11.7188L21.6406 7.57812L17.5 11.7188L21.6406 15.8594C21.875 16.0938 21.875 16.4844 21.6406 16.7188C21.4062 16.9531 21.0156 16.9531 20.7812 16.7188L16.6406 12.5781L12.5 16.7188L16.6406 20.8594C16.875 21.0938 16.875 21.4844 16.6406 21.7188C16.4062 21.9531 16.0156 21.9531 15.7812 21.7188L11.6406 17.5781L7.5 21.7188L11.6406 25.8594C11.875 26.0938 11.875 26.4844 11.6406 26.7188C11.4062 26.9531 11.0156 26.9531 10.7812 26.7188L6.64062 22.5781L3.125 26.1719C1.64062 27.5781 1.64062 30 3.125 31.4062Z" fill="#272321"/>
<path d="M49.9219 21.1719C51.4062 19.6875 53.75 19.6875 55.2344 21.1719L58.8281 24.7656C60.3125 26.25 60.3125 28.5938 58.8281 30.0781L33.75 55.1562C32.7344 56.0938 31.5625 56.7969 30.2344 57.1875L20.7812 60C20.5469 60.0781 20.3125 60 20.1562 59.8438C20 59.6875 19.9219 59.4531 20 59.2188L22.8125 49.7656C23.125 48.4375 23.9062 47.2656 24.8438 46.25L49.9219 21.1719ZM54.375 22.0312C53.3594 21.0938 51.7969 21.0938 50.7812 22.0312L45.625 27.2656L52.7344 34.375L57.9688 29.1406C58.9062 28.2031 58.9062 26.6406 57.9688 25.625L54.375 22.0312ZM25.5469 47.3438L26.1719 53.8281L32.6562 54.4531C32.7344 54.375 32.8125 54.2969 32.8125 54.2969L51.7969 35.3125L44.6875 28.2031L25.7031 47.1875C25.7031 47.1875 25.625 47.2656 25.5469 47.3438ZM24.4531 48.9062C24.2969 49.2969 24.0625 49.6875 23.9844 50.0781L21.4844 58.5156L29.9219 56.0156C30.3125 55.8594 30.7031 55.7031 31.0938 55.5469L25.5469 55C25.2344 55 25 54.7656 25 54.4531L24.4531 48.9062Z" fill="#272321"/>
</svg>
