<svg width="37" height="40" viewBox="0 0 37 40" fill="none" xmlns="http://www.w3.org/2000/svg">
<path d="M8.40008 15.8125C9.02508 15.5781 9.7282 15.5781 10.3532 15.8125L17.2282 18.7422C18.0876 19.1328 18.7516 19.9531 18.7516 20.9688C18.7126 24.875 17.111 31.9453 10.3923 35.1875C9.7282 35.5 8.98601 35.5 8.32195 35.1875C1.6032 31.9453 0.00163866 24.875 0.00163866 20.9688C-0.0374238 19.9531 0.626639 19.1328 1.48601 18.7422L8.40008 15.8125ZM9.84539 16.9844C9.53289 16.8281 9.18133 16.8281 8.86883 16.9844L1.95476 19.9141C1.52508 20.0703 1.21258 20.5 1.25164 20.9688C1.25164 24.6406 2.77508 31.125 8.86883 34.0547C9.18133 34.2109 9.53289 34.2109 9.84539 34.0547C15.9391 31.125 17.4626 24.6406 17.5016 20.9688C17.5016 20.5 17.1891 20.0703 16.7595 19.9141L9.84539 16.9844Z" fill="#272321"/>
<path d="M35.5957 11.7969L24.5801 0.78125C24.1113 0.3125 23.4863 0 22.7832 0H11.2988C8.48633 0 6.29883 2.26562 6.29883 5V9.375C6.29883 9.6875 6.5332 10 6.92383 10C7.23633 10 7.54883 9.6875 7.54883 9.375V5C7.54883 2.89062 9.18945 1.25 11.2988 1.25H22.5488V10.5469C22.5488 12.2656 23.9551 13.6719 25.6738 13.6719H35.0488V34.9219C35.0488 36.9531 33.3301 38.6719 31.2988 38.6719H14.502C14.1113 38.6719 13.7988 38.9062 13.7988 39.2969C13.7988 39.6094 14.1113 39.9219 14.502 39.9219H31.2988C34.0332 39.9219 36.2988 37.6562 36.2988 34.9219V13.5938C36.377 12.8906 36.0645 12.2656 35.5957 11.7969ZM25.6738 12.5C24.5801 12.5 23.7988 11.6406 23.7988 10.625V1.79688L34.502 12.5781H25.6738V12.5Z" fill="#272321"/>
</svg>
