<svg width="62" height="61" viewBox="0 0 62 61" fill="none" xmlns="http://www.w3.org/2000/svg">
<path d="M30.9219 2.17188C32.4062 0.6875 34.75 0.6875 36.2344 2.17188L39.8281 5.76562C41.3125 7.25 41.3125 9.59375 39.8281 11.0781L14.75 36.1562C13.7344 37.0938 12.5625 37.7969 11.2344 38.1875L1.78125 41C1.54688 41.0781 1.3125 41 1.15625 40.8438C1 40.6875 0.921875 40.4531 1 40.2188L3.8125 30.7656C4.125 29.4375 4.90625 28.2656 5.84375 27.25L30.9219 2.17188ZM35.375 3.03125C34.3594 2.09375 32.7969 2.09375 31.7812 3.03125L26.625 8.26562L33.7344 15.375L38.9688 10.1406C39.9062 9.20312 39.9062 7.64062 38.9688 6.625L35.375 3.03125ZM6.54688 28.3438L7.17188 34.8281L13.6562 35.4531C13.7344 35.375 13.8125 35.2969 13.8125 35.2969L32.7969 16.3125L25.6875 9.20312L6.70312 28.1875C6.70312 28.1875 6.625 28.2656 6.54688 28.3438ZM5.45312 29.9062C5.29688 30.2969 5.0625 30.6875 4.98438 31.0781L2.48438 39.5156L10.9219 37.0156C11.3125 36.8594 11.7031 36.7031 12.0938 36.5469L6.54688 36C6.23438 36 6 35.7656 6 35.4531L5.45312 29.9062Z" fill="#272321"/>
<path d="M60.6094 30.6094C61.0781 32.4844 61.0781 34.5156 60.4531 36.625C59.2812 41.4688 55.2188 45.1406 50.375 45.9219C49.2031 46.1562 46.9375 46.3125 44.4375 45.4531L30.5312 59.3594C29.3594 60.4531 27.875 61 26.5469 61C25.1406 61 23.7344 60.4531 22.7188 59.2812C20.4531 57.0938 20.4531 53.5 22.7188 51.3125L36.625 37.4062C36 35.5312 35.7656 33.5 36.1562 31.4688C36.8594 26.625 40.6094 22.5625 45.375 21.3906C46.3906 21.1562 47.4062 21 48.4219 21C49.4375 21.0781 50.4531 21.1562 51.4688 21.4688C52.4062 21.7031 52.7188 22.875 52.0156 23.5781L46 29.5156V36.0781H52.5625L58.5 30.0625C58.7344 29.8281 59.0469 29.6719 59.3594 29.6719C59.9062 29.6719 60.4531 30.0625 60.6094 30.6094ZM59.3594 36.3125C59.8281 34.4375 59.8281 32.6406 59.4375 30.9219L53.0312 37.3281H44.75V28.9688L51.0781 22.6406C48.9688 22.0938 47.0156 22.3281 45.7656 22.6406C41.3906 23.6562 38.0312 27.3281 37.3281 31.7031C37.25 32.3281 36.8594 34.125 38.0312 37.7969L23.5 52.3281C21.7812 54.0469 21.7812 56.7812 23.5 58.5C25.2188 60.2188 27.9531 60.2188 29.6719 58.5L44.2031 43.9688C47.7969 45.1406 49.8281 44.75 50.2969 44.6719C54.6719 43.9688 58.3438 40.6094 59.3594 36.3125ZM27.1719 53.5C27.875 53.5 28.4219 54.125 28.4219 54.75C28.4219 55.375 27.875 56 27.1719 56C26.5469 56 25.9219 55.375 25.9219 54.75C25.9219 54.0469 26.5469 53.5 27.1719 53.5Z" fill="#272321"/>
</svg>
