<svg width="20" height="17" viewBox="0 0 20 17" fill="none" xmlns="http://www.w3.org/2000/svg">
<path d="M9.65625 0.65625C9.84375 0.46875 10.125 0.46875 10.3125 0.65625L18.8125 8.125C19.0312 8.3125 19.0312 8.625 18.8438 8.84375C18.6875 9.0625 18.375 9.0625 18.1562 8.875L17 7.84375V14C17 15.4062 15.875 16.5 14.5 16.5H5.5C4.09375 16.5 3 15.4062 3 14V7.84375L1.8125 8.875C1.59375 9.0625 1.28125 9.0625 1.125 8.84375C0.9375 8.625 0.9375 8.3125 1.15625 8.125L9.65625 0.65625ZM4 6.96875V14C4 14.8438 4.65625 15.5 5.5 15.5H14.5C15.3125 15.5 16 14.8438 16 14V6.96875L10 1.6875L4 6.96875Z" fill="black"/>
</svg>
