<svg width="12" height="10" viewBox="0 0 12 10" fill="none" xmlns="http://www.w3.org/2000/svg">
<path d="M10.8828 5.75781L6.99219 9.88281C6.92188 9.97656 6.80469 10 6.71094 10C6.61719 10 6.52344 9.97656 6.45312 9.90625C6.28906 9.76562 6.28906 9.53125 6.42969 9.39062L9.71094 5.875H0.875C0.664062 5.875 0.5 5.71094 0.5 5.52344C0.5 5.33594 0.664062 5.125 0.875 5.125H9.71094L6.42969 1.63281C6.28906 1.49219 6.28906 1.25781 6.45312 1.11719C6.61719 0.976562 6.85156 0.976562 6.99219 1.14062L10.8828 5.26562C11.0234 5.40625 11.0234 5.61719 10.8828 5.75781Z" fill="white"/>
</svg>
